<?xml version="1.0" encoding="utf-8"?>
<!-- Generator: Adobe Illustrator 22.0.0, SVG Export Plug-In . SVG Version: 6.00 Build 0)  -->
<svg version="1.1" id="Слой_1" xmlns="http://www.w3.org/2000/svg" xmlns:xlink="http://www.w3.org/1999/xlink" x="0px" y="0px"
	 viewBox="0 0 74.2 79.8" style="enable-background:new 0 0 74.2 79.8;" xml:space="preserve">
<style type="text/css">
	.st0{fill:#674C35;}
</style>
<path class="st0" d="M74.1,39.5c0.1-0.4,0.1-0.8-0.1-1.2v0c-0.2-0.4-0.5-0.6-0.9-0.8c-0.4-0.1-0.8-0.1-1.2,0.1
	c-2.7,1.4-5.2,3.1-7.5,5.1l-0.6,0.5l2.1-14.6c0.1-0.4-0.1-0.9-0.4-1.2c-0.3-0.3-0.7-0.5-1.2-0.5H41.5l-0.8-4.4l0.1-0.1
	c2.9-2.4,4.6-5.9,4.6-9.7C45.5,5.6,39.8,0,32.9,0C26,0,20.4,5.6,20.4,12.6c0,3.8,1.7,7.4,4.6,9.7l0.1,0.1l-0.8,4.4H1.6
	c-0.5,0-0.9,0.2-1.2,0.5C0.1,27.7,0,28.2,0,28.6l2.4,16.5l-0.3,0c-0.4,0-0.8,0.2-1.1,0.5C0.6,46,0.5,46.5,0.6,47l1.8,11.7
	C2.5,59.5,3.1,60,3.9,60h0.6l2.6,18.4c0.1,0.8,0.8,1.3,1.5,1.3h48.5c0.8,0,1.4-0.6,1.5-1.3L61.3,60h0.6c0.8,0,1.4-0.6,1.5-1.3
	L65.3,47c0-0.2,0-0.4,0-0.6l0-0.2l0.1-0.1c2.4-2.2,5.1-4.1,8-5.6C73.7,40.2,74,39.9,74.1,39.5z M23.5,12.6c0-5.2,4.2-9.4,9.4-9.4
	s9.4,4.2,9.4,9.4c0,3.2-1.6,6.1-4.2,7.9c-0.5,0.3-0.8,1-0.7,1.6l0.9,4.8H27.5l0.9-4.8c0.1-0.6-0.2-1.2-0.7-1.6
	C25.1,18.7,23.5,15.7,23.5,12.6z M5.2,56.9l-1.3-8.6H59l-0.4,0.5c-1.8,2.4-3.3,5.1-4.5,7.9l-0.1,0.2H5.2z M52.9,60l-0.1,0.4
	c-0.3,0.8-0.5,1.7-0.7,2.6l-0.1,0.2h-3.3l0.4-3.2H52.9z M46.1,60l-0.4,3.2H34.5V60H46.1z M10,76.6L7.7,60h8.9l1.3,10.6
	c0.1,0.8,0.9,1.5,1.7,1.4c0.4,0,0.8-0.3,1-0.6c0.3-0.3,0.4-0.7,0.3-1.2L19.7,60h11.6v3.9l0,0.1c-0.1,0.2-0.2,0.5-0.2,0.8v2.7
	c0,3.3,1.3,6.3,3.6,8.6l0.6,0.5H10z M43.1,76.4c-4.9,0-8.9-4-8.9-8.9v-1.2h17.7v1.2C51.9,72.4,48,76.4,43.1,76.4z M55.8,76.6h-4.9
	l0.6-0.5c2.3-2.3,3.6-5.3,3.6-8.6v-2.7c0-0.1,0-0.2,0-0.3l0-0.1l0-0.1c0.3-1.4,0.7-2.8,1.1-4.1l0.1-0.2h1.9L55.8,76.6z M60.6,56.9
	h-3.1l0.2-0.4c0.9-1.9,2-3.7,3.2-5.4l0.8-1.1L60.6,56.9z M60.3,45.2H51l0.5-4c0-0.4-0.1-0.8-0.3-1.2c-0.3-0.3-0.6-0.5-1-0.6
	c-0.4-0.1-0.8,0.1-1.2,0.3c-0.3,0.3-0.5,0.6-0.6,1l-0.5,4.4H34.5v-4.8c0-0.9-0.7-1.6-1.6-1.6c-0.9,0-1.6,0.7-1.6,1.6v4.8H17.9
	l-0.5-4.4c-0.1-0.4-0.3-0.8-0.6-1c-0.3-0.3-0.7-0.4-1.2-0.3c-0.9,0.1-1.5,0.9-1.4,1.7l0.5,4H5.5L3.4,30h59.1L60.3,45.2z"/>
</svg>
