<?xml version="1.0" encoding="utf-8"?>
<!-- Generator: Adobe Illustrator 22.0.0, SVG Export Plug-In . SVG Version: 6.00 Build 0)  -->
<svg version="1.1" id="Слой_1" xmlns="http://www.w3.org/2000/svg" xmlns:xlink="http://www.w3.org/1999/xlink" x="0px" y="0px"
	 viewBox="0 0 76 76" style="enable-background:new 0 0 76 76;" xml:space="preserve">
<style type="text/css">
	.st0{fill:#624831;}
</style>
<g>
	<path class="st0" d="M72.4,3.6C70.1,1.3,67,0,63.7,0H12.3C9,0,5.9,1.3,3.6,3.6C1.3,5.9,0,9,0,12.3v51.3c0,3.3,1.3,6.4,3.6,8.7
		C5.9,74.7,9,76,12.3,76h51.3c3.3,0,6.4-1.3,8.7-3.6c2.3-2.3,3.6-5.4,3.6-8.7V12.3C76,9,74.7,5.9,72.4,3.6z M63.7,73.5H12.3
		c-2.6,0-5.1-1-7-2.9c-1.9-1.9-2.9-4.3-2.9-7V12.3c0-2.6,1-5.1,2.9-7c1.9-1.9,4.3-2.9,7-2.9h51.3c2.6,0,5.1,1,7,2.9
		c1.9,1.9,2.9,4.3,2.9,7v51.3c0,2.6-1,5.1-2.9,7C68.7,72.5,66.3,73.5,63.7,73.5z"/>
	<path class="st0" d="M63.7,4.4H12.3c-2.1,0-4.1,0.8-5.6,2.3c-1.5,1.5-2.3,3.5-2.3,5.6v23.5c0,0.7,0.6,1.3,1.3,1.3s1.3-0.6,1.3-1.3
		V12.3c0-1.4,0.6-2.8,1.6-3.8c1-1,2.4-1.6,3.8-1.6h51.3c1.4,0,2.8,0.6,3.8,1.6c1,1,1.6,2.4,1.6,3.8v51.3c0,1.4-0.6,2.8-1.6,3.8
		c-1,1-2.4,1.6-3.8,1.6H12.3c-1.4,0-2.8-0.6-3.8-1.6c-1-1-1.6-2.4-1.6-3.8V40.3c0-0.7-0.6-1.3-1.3-1.3s-1.3,0.6-1.3,1.3v23.4
		c0,2.1,0.8,4.1,2.3,5.6c1.5,1.5,3.5,2.3,5.6,2.3h51.3c2.1,0,4.1-0.8,5.6-2.3c1.5-1.5,2.3-3.5,2.3-5.6V12.3c0-2.1-0.8-4.1-2.3-5.6
		C67.8,5.3,65.8,4.4,63.7,4.4z"/>
	<path class="st0" d="M30.3,62.7c0.7,0,1.3-0.6,1.3-1.3V46.9h11.6c9.3,0,16.8-7.5,16.8-16.8s-7.5-16.8-16.8-16.8H21.4
		c-0.7,0-1.3,0.6-1.3,1.3v46.9c0,0.7,0.6,1.3,1.3,1.3H30.3z M43.2,44.4H30.3c-0.7,0-1.3,0.6-1.3,1.3v14.6h-6.4V15.8h20.5
		c7.9,0,14.3,6.4,14.3,14.3S51,44.4,43.2,44.4z"/>
	<path class="st0" d="M43.2,22.2H30.3c-0.7,0-1.3,0.6-1.3,1.3v13.3c0,0.7,0.6,1.3,1.3,1.3h12.9c4.4,0,7.9-3.5,7.9-7.9
		S47.5,22.2,43.2,22.2z M43.2,35.5H31.6V24.7h11.6c3,0,5.4,2.4,5.4,5.4S46.2,35.5,43.2,35.5z"/>
</g>
</svg>
