<svg xmlns="http://www.w3.org/2000/svg" viewBox="0 0 77.19 84.73"><title>Ресурс 21</title><g id="Слой_2" data-name="Слой 2"><g id="Слой_1-2" data-name="Слой 1"><rect x="47.58" y="39.47" width="11.92" height="45.26" fill="#94c400"/><rect x="4.81" y="26.02" width="39.77" height="58.71" fill="#94c400"/><rect x="62.27" y="54.47" width="11.92" height="30.26" fill="#94c400"/><polygon points="52.87 0 45.51 5.41 38.84 0.56 31.6 6.03 24.34 0.76 0.02 18.37 0 84.73 6.82 84.73 6.84 22.05 24.34 9.39 41.81 22.05 41.81 84.73 48.65 84.73 48.65 18.39 37.47 10.28 38.86 9.21 56.32 21.86 56.32 84.73 63.16 84.73 63.16 18.2 51.44 9.7 52.88 8.63 70.35 21.3 70.35 84.73 77.19 84.73 77.19 17.64 52.87 0" fill="#3c4147"/></g></g></svg>