<svg xmlns="http://www.w3.org/2000/svg" viewBox="0 0 68.1 81.45"><title>Ресурс 22</title><g id="Слой_2" data-name="Слой 2"><g id="Слой_1-2" data-name="Слой 1"><polygon points="67.92 53.19 42.16 53.19 52.88 81.45 57.77 81.45 67.92 53.19" fill="#3c4147" fill-rule="evenodd"/><polygon points="25.84 53.19 0.09 53.19 10.8 81.45 15.7 81.45 25.84 53.19" fill="#3c4147" fill-rule="evenodd"/><path d="M44,24.69H66.15a2,2,0,0,1,2,2V53.28h-26V26.69a2,2,0,0,1,2-2Z" fill="#94c400" fill-rule="evenodd"/><path d="M2,24.69H24.08a2,2,0,0,1,2,2V53.28H0V26.69a2,2,0,0,1,2-2Z" fill="#94c400" fill-rule="evenodd"/><path d="M44,17.66H66.15a2,2,0,0,1,2,2V46.25h-26V19.67a2,2,0,0,1,2-2Z" fill="#3c4147" fill-rule="evenodd"/><path d="M2,17.66H24.08a2,2,0,0,1,2,2V46.25H0V19.67a2,2,0,0,1,2-2Z" fill="#3c4147" fill-rule="evenodd"/><path d="M51.18,10.28H59a.7.7,0,0,1,.69.7V20.4H50.48V11a.71.71,0,0,1,.7-.7Z" fill="#3c4147" fill-rule="evenodd"/><path d="M9.1,10.28h7.84a.7.7,0,0,1,.69.7V20.4H8.41V11a.7.7,0,0,1,.69-.7Z" fill="#3c4147" fill-rule="evenodd"/><path d="M0,6.5v-6A.53.53,0,0,1,.51,0H67.76V7H.51A.53.53,0,0,1,0,6.5Z" fill="#94c400" fill-rule="evenodd"/><path d="M34.06,19.64a4.81,4.81,0,1,0-4.68-4.81,4.75,4.75,0,0,0,4.68,4.81Z" fill="#94c400" fill-rule="evenodd"/><path d="M34.06,38.27a4.81,4.81,0,1,0-4.68-4.81,4.75,4.75,0,0,0,4.68,4.81Z" fill="#94c400" fill-rule="evenodd"/><path d="M34.06,54.82A4.81,4.81,0,1,0,29.38,50a4.75,4.75,0,0,0,4.68,4.81Z" fill="#3c4147" fill-rule="evenodd"/></g></g></svg>