<svg xmlns="http://www.w3.org/2000/svg" viewBox="0 0 105.36 72.34"><title>Ресурс 19</title><g id="Слой_2" data-name="Слой 2"><g id="Слой_1-2" data-name="Слой 1"><polygon points="94.87 63.54 95.01 63.28 105.36 45.37 84.67 45.37 63.97 45.37 74.32 63.28 74.46 63.54 94.87 63.54" fill="#3c4147" fill-rule="evenodd"/><polygon points="84.69 34.51 92.18 41.77 99.63 49.02 84.69 49.02 69.75 49.02 77.24 41.77 84.69 34.51" fill="#94c400" fill-rule="evenodd"/><rect x="80.84" y="58.75" width="8.31" height="13.38" fill="#3c4147"/><path d="M1.17,64.66V61.17a.31.31,0,0,1,.28-.31H18V65H1.45a.31.31,0,0,1-.28-.31Z" fill="#94c400" fill-rule="evenodd"/><path d="M6.07,63.44h7a.61.61,0,0,1,.6.62v8.28H5.47V64.06a.61.61,0,0,1,.6-.62Z" fill="#94c400" fill-rule="evenodd"/><path d="M17.44.63,15.85,6.44a.56.56,0,0,0,.37.74l36.71,4.54a.59.59,0,0,0,.54-.65L52.9,5c-.06-.37-.14-.71-.4-.74L18,0c-.26,0-.43.28-.54.62Z" fill="#3c4147" fill-rule="evenodd"/><path d="M17.24,10.72l-6,14a1.48,1.48,0,0,0,1,2l39.83,4.9a1.48,1.48,0,0,0,1.42-1.67L51,14.88c-.17-1-.31-1.9-1-2L18.66,9c-.65-.06-1,.79-1.42,1.67Z" fill="#94c400" fill-rule="evenodd"/><path d="M12.36,8.7,6.83,24.8,4.2,46.18a1.83,1.83,0,0,0,1.56,2.07l47.93,5.9a1.85,1.85,0,0,0,2-1.64l2.61-21.17c-.2-5.67-.43-11.37-.62-17.06a2.06,2.06,0,0,0-1.56-2.07A186.65,186.65,0,0,0,14.35,7.06a2.09,2.09,0,0,0-2,1.64Z" fill="#94c400" fill-rule="evenodd"/><path d="M29.54,50.23c4.17.51,7.17,3.66,6.77,7.06S32.18,63,28,62.48s-7.17-3.66-6.75-7.06,4.11-5.7,8.25-5.19Z" fill="#3c4147" fill-rule="evenodd"/><path d="M50.6,54.8H43.46a.82.82,0,0,0-.82.82V71.38a.82.82,0,0,0,.82.82H50.6a.82.82,0,0,0,.82-.82V55.62a.82.82,0,0,0-.82-.82Z" fill="#3c4147" fill-rule="evenodd"/><path d="M66,21.6,61.43,21a.55.55,0,0,0-.62.45l-1.25,10.2a.54.54,0,0,0,.48.6l4.62.57a.52.52,0,0,0,.6-.45L66.5,22.2a.52.52,0,0,0-.48-.6Z" fill="#3c4147" fill-rule="evenodd"/><path d="M58.08,36.34l-3.83-.45a.44.44,0,0,0-.48.4l-1,8.45a.44.44,0,0,0,.4.48L57,45.7a.44.44,0,0,0,.48-.4l1-8.45a.47.47,0,0,0-.4-.51Z" fill="#3c4147" fill-rule="evenodd"/><path d="M9.58,30.39l-3.83-.48a.47.47,0,0,0-.51.4l-1,8.45a.45.45,0,0,0,.4.51l3.8.45a.45.45,0,0,0,.51-.37l1-8.45a.45.45,0,0,0-.4-.51Z" fill="#3c4147" fill-rule="evenodd"/><path d="M5.36,14.29l-3.8-.45a.45.45,0,0,0-.51.37L0,22.65a.45.45,0,0,0,.4.51l3.83.48a.45.45,0,0,0,.51-.4l1-8.45a.45.45,0,0,0-.4-.51Z" fill="#3c4147" fill-rule="evenodd"/><path d="M12.31,46.6H6.1a1.3,1.3,0,0,0-1.3,1.3v12a1.32,1.32,0,0,0,1.3,1.3h6.21a1.32,1.32,0,0,0,1.3-1.3v-12a1.3,1.3,0,0,0-1.3-1.3Z" fill="#3c4147" fill-rule="evenodd"/><path d="M2.67,45.3,1.59,54.17a1.12,1.12,0,0,0,1,1.25l51.93,6.41a1.16,1.16,0,0,0,1.25-1L56.81,52a1.08,1.08,0,0,0-1-1.25L3.91,44.34a1.16,1.16,0,0,0-1.25,1Z" fill="#3c4147" fill-rule="evenodd"/><path d="M16.19,29.65,11.51,41.87a1.3,1.3,0,0,0,.94,1.7l35.32,4.37a1.34,1.34,0,0,0,1.33-1.45l-1.7-13c-.11-.85-.31-1.64-.94-1.7L17.52,28.21c-.62-.09-1,.65-1.33,1.45Z" fill="#3c4147" fill-rule="evenodd"/><path d="M53.41,29.23a1.32,1.32,0,0,0,1.45-1.33L54.6,15.68A1.54,1.54,0,0,0,53.52,14,172.36,172.36,0,0,0,16.08,9.41a1.61,1.61,0,0,0-1.45,1.33l-3.4,11.79a1.33,1.33,0,0,0,1.08,1.64c13.24,1.62,27.84,3.43,41.1,5Z" fill="#3c4147" fill-rule="evenodd"/><path d="M19.82,31.95l-.88,2.49a.25.25,0,0,0,.26.31l24.15,3c.17,0,.37-.09.34-.26l-.54-2.66c0-.14-.09-.31-.26-.31L20.16,31.69c-.17,0-.28.11-.34.26Z" fill="#94c400" fill-rule="evenodd"/><path d="M19,38.24l-.88,2.47c-.06.14.11.31.28.34l24.15,3c.17,0,.37-.11.34-.26l-.54-2.66a.36.36,0,0,0-.28-.34L19.36,38a.39.39,0,0,0-.34.28Z" fill="#94c400" fill-rule="evenodd"/><path d="M17.69,54.74l-.11-3.32a.31.31,0,0,1,.31-.34l22.76,2.81a.29.29,0,0,1,.23.4l-1.19,3.17c-.09.2-.2.37-.34.34l-21.4-2.64c-.17,0-.23-.2-.26-.43Z" fill="#94c400" fill-rule="evenodd"/><path d="M46.75,53.66l-.37,3a.37.37,0,0,0,.31.4l5.92.71a.35.35,0,0,0,.4-.28l.37-3a.37.37,0,0,0-.31-.4l-5.92-.71a.35.35,0,0,0-.4.28Z" fill="#fff" fill-rule="evenodd"/><path d="M5.47,48.59l-.37,3a.35.35,0,0,0,.31.4l5.92.74a.35.35,0,0,0,.4-.31l.37-3a.37.37,0,0,0-.31-.4l-5.92-.74a.37.37,0,0,0-.4.31Z" fill="#fff" fill-rule="evenodd"/></g></g></svg>