<svg xmlns="http://www.w3.org/2000/svg" viewBox="0 0 43.07 57.23"><title>Ресурс 16</title><g id="Слой_2" data-name="Слой 2"><g id="Слой_1-2" data-name="Слой 1"><polygon points="21.67 16.56 23.28 17.5 24.86 18.41 24.86 20.3 24.86 22.14 23.28 23.05 21.67 23.99 20.06 23.05 18.45 22.14 18.45 20.3 18.45 18.41 20.06 17.5 21.67 16.56" fill="#404349" fill-rule="evenodd"/><path d="M14.2,38l5.19,3.38a2.57,2.57,0,0,1,1.22,2.2v4.17l-5.27-3.54A2.59,2.59,0,0,1,14.2,42Z" fill="#94c400"/><path d="M14.2,30.4l5.19,3.38A2.48,2.48,0,0,1,20.61,36v4.13l-5.27-3.54a2.59,2.59,0,0,1-1.14-2.2Z" fill="#94c400"/><path d="M14.2,22.73l5.19,3.38a2.57,2.57,0,0,1,1.22,2.2v4.17l-5.27-3.58a2.52,2.52,0,0,1-1.14-2.16Z" fill="#94c400"/><path d="M28.63,38,23.4,41.42a2.62,2.62,0,0,0-1.18,2.2v4.17l5.23-3.54A2.62,2.62,0,0,0,28.63,42Z" fill="#94c400"/><path d="M28.63,30.4,23.4,33.79A2.53,2.53,0,0,0,22.22,36v4.13l5.23-3.54a2.62,2.62,0,0,0,1.18-2.2Z" fill="#94c400"/><path d="M28.63,22.73,23.4,26.12a2.62,2.62,0,0,0-1.18,2.2v4.17l5.23-3.58a2.56,2.56,0,0,0,1.18-2.16Z" fill="#94c400"/><path d="M41.73,7.63a4.53,4.53,0,0,0-3.19-1.34h-3V2.67l-1.81-.35L22,.08,21.55,0,21,.08l.5,2v0L21,.08,9.4,2.32l-1.81.35V6.29h-3A4.57,4.57,0,0,0,0,10.86V41.1c0,4.76,11.21,10.62,17.62,14,1.1.59,2,1.06,2.95,1.57l1,.55,1-.55c.79-.47,2-1.1,3.46-1.81,6.57-3.3,17.07-8.57,17.07-13.77V10.86A4.55,4.55,0,0,0,41.73,7.63ZM39,41.1c0,2.71-9.12,7.28-14.87,10.19-.94.47-1.85.9-2.6,1.34l-2-1.1C13.84,48.57,4.05,43.46,4.05,41.1V10.86a.38.38,0,0,1,.16-.35.38.38,0,0,1,.35-.16h7.59v-.2h0V5.91l9.34-1.77,9.34,1.76v4.44h7.67a.47.47,0,0,1,.47.51Z" fill="#404349"/><path d="M34.14,15.58,21.44,8.2v0h0v0L8.69,15.58A2.64,2.64,0,0,0,7.35,17.9V40.16L11.52,43V19l9.89-5.53L31.31,19V43l4.21-2.79V17.9A2.6,2.6,0,0,0,34.14,15.58Z" fill="#404349"/></g></g></svg>