<?xml version="1.0" encoding="utf-8"?>
<!-- Generator: Adobe Illustrator 21.1.0, SVG Export Plug-In . SVG Version: 6.00 Build 0)  -->
<svg version="1.1" xmlns="http://www.w3.org/2000/svg" xmlns:xlink="http://www.w3.org/1999/xlink" x="0px" y="0px"
	 viewBox="0 0 150 137" style="enable-background:new 0 0 150 137;" xml:space="preserve">
<style type="text/css">
	.st0{display:none;}
	.st1{display:inline;}
	.st2{fill:#404349;}
	.st3{fill:#94C400;}
</style>
<g id="Слой_1" class="st0">
	<g id="Слой_2" class="st1">
		<g id="Слой_1-2">
			<polygon class="st2" points="75.8,44.8 79.1,46.7 82.3,48.6 82.3,52.5 82.3,56.2 79.1,58.1 75.8,60 72.5,58.1 69.2,56.2 
				69.2,52.5 69.2,48.6 72.5,46.7 			"/>
			<path class="st3" d="M60.5,88.7l10.6,6.9c1.6,1,2.5,2.7,2.5,4.5v8.5l-10.8-7.3c-1.5-1-2.4-2.7-2.3-4.5V88.7z"/>
			<path class="st3" d="M60.5,73.2l10.6,6.9c1.6,0.9,2.6,2.7,2.5,4.5v8.5l-10.8-7.3c-1.5-1-2.4-2.7-2.3-4.5V73.2z"/>
			<path class="st3" d="M60.5,57.4l10.6,6.9c1.6,1,2.5,2.7,2.5,4.5v8.5l-10.8-7.3c-1.5-1-2.4-2.6-2.3-4.4L60.5,57.4z"/>
			<path class="st3" d="M90.1,88.7l-10.7,7c-1.5,1-2.4,2.7-2.4,4.5v8.5l10.7-7.3c1.5-1,2.5-2.8,2.4-4.6V88.7z"/>
			<path class="st3" d="M90.1,73.2l-10.7,6.9c-1.5,1-2.5,2.7-2.4,4.5v8.5l10.7-7.3c1.5-1,2.4-2.7,2.4-4.5V73.2z"/>
			<path class="st3" d="M90.1,57.4l-10.7,6.9c-1.5,1-2.4,2.7-2.4,4.5v8.5l10.7-7.3c1.5-1,2.4-2.6,2.4-4.4V57.4z"/>
			<path class="st2" d="M116.9,26.5c-1.7-1.7-4.1-2.7-6.5-2.7h-6.1v-7.4l-3.7-0.7l-24-4.6l-0.9-0.2L74.4,11l1,4.1l0,0l-1-4.1
				l-23.8,4.6l-3.7,0.7v7.4h-6.1c-5.2,0-9.4,4.2-9.4,9.3c0,0,0,0,0,0v62c0,9.8,23,21.8,36.1,28.7c2.3,1.2,4.1,2.2,6,3.2l2,1.1l2-1.1
				c1.6-1,4.1-2.3,7.1-3.7c13.5-6.8,35-17.6,35-28.2V33.1C119.7,30.6,118.7,28.2,116.9,26.5z M111.3,95.1c0,5.6-18.7,14.9-30.5,20.9
				c-1.9,1-3.8,1.8-5.3,2.7l-4.1-2.3c-11.7-6.1-31.7-16.5-31.7-21.4v-62c0-0.3,0.1-0.6,0.3-0.7c0.2-0.2,0.4-0.4,0.7-0.3h15.6v-0.4
				l0,0V23l19.1-3.6L94.6,23V32h15.7c0.5,0,1,0.4,1,1c0,0,0,0.1,0,0.1L111.3,95.1z"/>
			<path class="st2" d="M101.3,42.8l-26-15.1l0,0l0,0l0,0L49.2,42.8c-1.7,1-2.8,2.8-2.7,4.8v45.6L55,99V49.8l20.3-11.3l20.3,11.3V99
				l8.6-5.7V47.5C104.2,45.6,103.1,43.7,101.3,42.8z"/>
		</g>
	</g>
</g>
<g id="Слой_2_1_">
	<g id="Слой_2_3_">
		<g id="Слой_1-2_2_">
			<path class="st2" d="M25.1,136.8h-7.4v-18.6h12.3v3.3h-8.7v3.7h3.8c3.2,0,5.8,2.6,5.8,5.8S28.3,136.9,25.1,136.8L25.1,136.8
				L25.1,136.8z M24.9,128.5h-3.6v5.1h3.6c1.4,0,2.6-1.1,2.6-2.6C27.5,129.6,26.3,128.5,24.9,128.5L24.9,128.5z"/>
			<path class="st2" d="M48.1,128.2c0.3,2.4-0.3,4.8-1.8,6.7c-1.3,1.4-3.1,2.1-5,2c-1.9,0-3.7-0.7-5-2c-1.4-1.9-2.1-4.3-1.8-6.6
				v-1.5c0-3.7,0.4-5.2,1.8-6.7c1.3-1.4,3.1-2.1,5-2c1.9,0,3.7,0.7,5,2c1.4,1.7,2.1,3.9,1.8,6.1V128.2z M43.6,122.3
				c-0.6-0.6-1.4-1-2.3-1c-0.9,0-1.8,0.3-2.4,1c-0.8,1.5-1.1,3.3-0.9,5v0.9c-0.2,1.6,0.1,3.2,0.9,4.5c0.6,0.6,1.5,1,2.4,1
				c0.9,0,1.7-0.3,2.3-1c0.8-0.9,0.9-1.8,0.9-5.6C44.5,124.1,44.3,123.1,43.6,122.3z"/>
			<path class="st2" d="M60.2,136.8v-15.3h-4.4v5.4c0,7.8-1.9,9.9-5.8,9.9h-1.4v-3.3h0.5c1.8,0,3.2-1.1,3.2-6.9v-8.4h11.6v18.6H60.2
				z"/>
			<path class="st2" d="M67.7,136.8v-18.6H80v3.3h-8.6v4.4h7.3v3.2h-7.4v4.5h8.6v3.2L67.7,136.8z"/>
			<path class="st2" d="M82.9,136.8v-18.6h12.3v3.3h-8.6v4.4h7.3v3.2h-7.3v4.5h8.6v3.2L82.9,136.8z"/>
			<polygon class="st2" points="127.3,108.5 127.3,69.4 107.4,58.7 107.4,65 121.6,73 121.6,108 113.5,108 113.5,77.7 107.4,74.3 
				107.4,108 99.5,108 99.4,19.6 82,9.8 64.5,19.6 64.5,44.3 36.2,44.3 39.4,36.2 56.6,36.2 56.6,14.9 82,0.6 107.4,14.9 
				107.4,49.5 135.3,64.5 135.3,108.5 			"/>
			<path class="st3" d="M82.5,15.4l10.6,6.1c1.3,0.8,2.1,2.2,2,3.7v7.4l-10.6-6.5c-1.3-0.8-2.1-2.3-2-3.8V15.4z"/>
			<path class="st3" d="M82.5,28.4l10.6,6.1c1.3,0.8,2.1,2.2,2,3.8v7.3l-10.6-6.5c-1.3-0.8-2.1-2.3-2-3.8V28.4z"/>
			<path class="st3" d="M49.3,100.4v8.2H39.2v-8.2H15.8v-9.9l19.6-39.3h11.4L27.2,90.5h12V79.8h10.1v10.7h5.2v9.9H49.3z"/>
			<path class="st3" d="M74.3,109c-9.3,0-17.5-6.1-17.5-17.1V67.8c0-10.9,8.2-17.1,17.5-17.1s17.3,6.1,17.3,17.1V92
				C91.6,102.9,83.6,109,74.3,109z M81.2,68.1c0-4.8-2.8-7.8-6.9-7.8c-4.1,0-7,3-7,7.8v23.8c0,4.8,2.9,7.7,7,7.7
				c4.1,0,6.9-2.9,6.9-7.7V68.1z"/>
		</g>
	</g>
</g>
<g id="Слой_4" class="st0">
	<g id="Слой_2_4_" class="st1">
		<g id="Слой_1-2_3_">
			<path class="st2" d="M60.1,96.3V78.4h-5.2v6.3c0,9.1-2.2,11.6-6.7,11.6h-1.7v-3.8h0.6c2.2,0,3.7-1.3,3.7-8.1v-9.8h13.5v21.7H60.1
				z"/>
			<path class="st2" d="M70.2,96.3V74.6h14.3v3.8h-10v5.2h8.6v3.7h-8.6v5.3h10v3.8H70.2z"/>
			<path class="st2" d="M95.9,78.4v17.9h-4.2V78.4H86v-3.8h15.6v3.8L95.9,78.4z"/>
			<path class="st3" d="M74.6,109.8c3.5,5.7,7.7,8.2,14.2,9.8c6.4,1.6,11.4,1.5,17.1-1.9C99.1,107.3,85.4,103.9,74.6,109.8z"/>
			<path class="st3" d="M94.2,105.9c5.2,4.3,9.9,5.2,16.6,4.6c6.7-0.7,11.3-2.3,15.6-7.4C116.5,95.5,102.5,96.7,94.2,105.9z"/>
			<path class="st3" d="M111.3,95.9c6.3,2.4,11.1,1.7,17.3-1c6.1-2.7,9.8-5.9,12.3-12.1C129.1,78.7,116.2,84.4,111.3,95.9z"/>
			<path class="st3" d="M124.3,80.7c6.8,0.2,11.1-2,16-6.6c4.8-4.6,7.4-8.7,7.7-15.5C135.5,58.7,125.2,68.3,124.3,80.7z"/>
			<path class="st3" d="M131.7,62.1c6.4-1.9,9.8-5.5,12.9-11.4c3.1-5.9,4.1-10.7,2.2-17.2C135.1,37.6,128.5,50.1,131.7,62.1z"/>
			<path class="st3" d="M132.6,42.2c5.4-4.1,7.4-8.5,8.5-15.1c1-6.6,0.5-11.5-3.5-16.8C127.8,18,125.7,31.9,132.6,42.2L132.6,42.2z"
				/>
			<path class="st3" d="M43.2,117.7c5.7,3.5,10.6,3.5,17.1,1.9s10.7-4.1,14.3-9.8C63.8,103.9,50.1,107.3,43.2,117.7L43.2,117.7z"/>
			<path class="st3" d="M74.6,114.9c-5.9,1.9-9.3,8.1-7.7,14.1c2.9-0.8,5.3-2.9,6.5-5.6c0.5-1,0.9-2.1,1.2-3.2
				c0.2,1.1,0.6,2.2,1.1,3.2c1.2,2.7,3.6,4.8,6.5,5.6C83.8,123,80.4,116.9,74.6,114.9z"/>
			<path class="st3" d="M22.8,103.1c4.3,5.2,8.9,6.8,15.6,7.4s11.4-0.2,16.5-4.6C46.6,96.7,32.6,95.5,22.8,103.1z"/>
			<path class="st3" d="M37.8,95.9C32.9,84.4,20,78.7,8.3,82.7c2.4,6.1,6.1,9.3,12.3,12.1S31.5,98.2,37.8,95.9L37.8,95.9z"/>
			<path class="st3" d="M24.8,80.7c-0.9-12.4-11.2-22-23.6-22.1c0.2,6.8,2.8,11,7.7,15.5S18,80.8,24.8,80.7L24.8,80.7z"/>
			<path class="st3" d="M17.4,62.1c3.2-12-3.4-24.4-15.1-28.5C0.4,40,1.4,44.6,4.5,50.8s6.5,9.4,12.9,11.4L17.4,62.1z"/>
			<path class="st3" d="M16.5,42.2c7-10.3,4.8-24.3-5.1-31.9c-4,5.4-4.5,10.2-3.5,16.9S11,38.1,16.5,42.2L16.5,42.2z"/>
			<path class="st2" d="M56.1,70.2V21.7L43.8,32.4V20.5L56.1,9.8h11v60.4H56.1z"/>
			<path class="st2" d="M84.4,70.2V21.7L72.1,32.4V20.5L84.4,9.8h11.1v60.4H84.4z"/>
			<path class="st2" d="M114.1,46.2l-10.2,0.2c-1.1-0.1-2.1,0.8-2.2,1.9c0,0.1,0,0.2,0,0.3v5l7.6-0.2c1.2,0,1.5-1.2,2-2.3
				L114.1,46.2z"/>
			<path class="st2" d="M36.6,46.2l10.2,0.2c1.1-0.1,2.1,0.8,2.2,1.9c0,0.1,0,0.2,0,0.3v5l-7.7-0.2c-1.2,0-1.5-1.2-2-2.3L36.6,46.2z
				"/>
			<path class="st2" d="M120,35.7h-16.1c-1.1-0.1-2.1,0.8-2.2,1.9c0,0.1,0,0.2,0,0.3V43l13.5-0.2c1.3,0,1.6-1.2,2.2-2.3L120,35.7z"
				/>
			<path class="st2" d="M30.6,35.7h16.2c1.1-0.1,2.1,0.8,2.2,1.9c0,0.1,0,0.2,0,0.3V43l-13.6-0.2c-1.2,0-1.5-1.2-2-2.3L30.6,35.7z"
				/>
		</g>
	</g>
</g>
<g id="Слой_5" class="st0">
	<g id="Слой_2_2_" class="st1">
		<g id="Слой_1-2_1_">
			<polygon class="st3" points="116.7,8.8 94,8.8 79.3,29.9 90.6,46 			"/>
			<path class="st2" d="M79.3,56.4v-5h7.6L57.2,8.8H34.4l29.7,42.6h7.7v5c-19.7,2.1-34,19.7-32,39.5c2.1,19.7,19.7,34,39.5,32
				c18.3-1.9,32.2-17.4,32.2-35.8C111.4,73.7,97.5,58.4,79.3,56.4z M75.6,121.2c-16.1,0-29.1-13-29.2-29.1c0-16.1,13-29.1,29.1-29.2
				c16.1,0,29.1,13,29.2,29.1C104.6,108.1,91.6,121.2,75.6,121.2z"/>
			<path class="st2" d="M75.6,72.6c5.6,0,10.9,2.4,14.6,6.6l2.7-2.3c-4.3-5-10.6-7.9-17.3-7.9c-6.6,0-12.9,2.9-17.2,7.9l2.6,2.3
				C64.7,75,70,72.6,75.6,72.6z"/>
			<polygon class="st2" points="79.7,87.4 75.6,79 71.4,87.4 62.2,88.8 68.9,95.3 67.3,104.6 75.6,100.2 83.8,104.6 82.2,95.3 
				89,88.8 			"/>
			<path class="st3" d="M75.6,111.3c1,1.6,2.6,2.8,4.5,3.1c1.8,0.6,3.8,0.4,5.5-0.6C83.4,110.4,79,109.3,75.6,111.3z"/>
			<path class="st3" d="M81.8,109.9c1.4,1.3,3.4,1.8,5.2,1.5c1.9,0,3.8-0.8,5-2.3C89,106.6,84.5,107,81.8,109.9z"/>
			<path class="st3" d="M87.3,106.7c1.8,0.8,3.8,0.6,5.5-0.3c1.8-0.6,3.2-2.1,3.9-3.9c-3.7-1.2-7.7,0.5-9.3,4.1V106.7z"/>
			<path class="st3" d="M91.4,101.8c1.9,0.1,3.8-0.6,5.1-2c1.5-1.2,2.4-3,2.4-4.9C95,94.9,91.7,98,91.4,101.8L91.4,101.8z"/>
			<path class="st3" d="M93.8,95.9c1.8-0.5,3.3-1.9,4.1-3.6c1.1-1.6,1.3-3.6,0.7-5.5C94.8,88.1,92.7,92.1,93.8,95.9L93.8,95.9z"/>
			<path class="st3" d="M94.1,89.6c1.5-1.1,2.5-2.9,2.7-4.8c0.4-1.9,0.1-3.8-1-5.4C92.5,81.8,91.8,86.4,94.1,89.6L94.1,89.6z"/>
			<path class="st3" d="M65.6,113.7c1.6,1,3.7,1.2,5.5,0.6c1.9-0.2,3.6-1.3,4.5-3c-3.5-1.9-7.8-0.8-10,2.5L65.6,113.7z"/>
			<path class="st3" d="M75.6,112.8c-1.9,0.6-3,2.6-2.4,4.5c0.9-0.3,1.7-1,2-1.8c0.1-0.3,0.3-0.6,0.3-1c0.1,0.3,0.2,0.7,0.4,1
				c0.4,0.9,1.1,1.6,2,1.8C78.4,115.4,77.4,113.4,75.6,112.8L75.6,112.8z"/>
			<path class="st3" d="M59,109c1.2,1.5,3.1,2.3,5,2.3c1.9,0.3,3.9-0.2,5.3-1.5C66.7,106.9,62.2,106.5,59,109L59,109z"/>
			<path class="st3" d="M63.9,106.7c-1.6-3.6-5.7-5.3-9.4-4.1c0.7,1.8,2.1,3.2,4,3.9c1.7,1,3.7,1.1,5.5,0.3L63.9,106.7z"/>
			<path class="st3" d="M59.7,101.8c-0.3-3.9-3.6-7-7.5-6.9c0,1.9,0.9,3.7,2.4,4.9C55.9,101.2,57.8,101.9,59.7,101.8L59.7,101.8z"/>
			<path class="st3" d="M57.3,95.9c1-3.8-1.1-7.8-4.8-9.1c-0.5,1.8-0.3,3.8,0.7,5.5C54,94.1,55.5,95.4,57.3,95.9L57.3,95.9z"/>
			<path class="st3" d="M57.1,89.6c2.2-3.3,1.5-7.8-1.6-10.2c-1.2,1.5-1.6,3.5-1.1,5.4C54.5,86.6,55.5,88.4,57.1,89.6L57.1,89.6z"/>
		</g>
	</g>
</g>
</svg>
