<svg xmlns="http://www.w3.org/2000/svg" xmlns:xlink="http://www.w3.org/1999/xlink" viewBox="0 0 41.99 69.01"><defs><linearGradient id="Безымянный_градиент_9" x1="7655.33" y1="7812.27" x2="7552.5" y2="8133.77" gradientTransform="matrix(0.03, 0, 0, -0.03, -173.93, 285.54)" gradientUnits="userSpaceOnUse"><stop offset="0" stop-color="#009846"/><stop offset="1" stop-color="#78b833"/></linearGradient><linearGradient id="Безымянный_градиент_9-3" x1="7131.56" y1="7573.82" x2="7028.49" y2="7895.72" xlink:href="#Безымянный_градиент_9"/></defs><title>Ресурс 1</title><g id="Слой_2" data-name="Слой 2"><g id="Слой_1-2" data-name="Слой 1"><polygon points="29.93 44.32 41.99 49.2 41.99 39.43 29.93 44.32" fill="url(#Безымянный_градиент_9)"/><polygon points="29.93 44.32 41.99 49.2 41.99 39.43 29.93 44.32" fill="url(#Безымянный_градиент_9)"/><polygon points="0 36.75 0 46.62 41.99 29.59 41.99 19.73 0 36.75" fill="#323a42"/><polygon points="0 17.02 0 26.89 41.99 9.87 41.99 0 0 17.02" fill="#323a42"/><polygon points="17.52 49.23 5.36 54.16 41.99 69.02 41.99 59.14 17.52 49.23" fill="url(#Безымянный_градиент_9-3)"/><polygon points="17.52 49.23 5.36 54.16 41.99 69.02 41.99 59.14 17.52 49.23" fill="url(#Безымянный_градиент_9-3)"/></g></g></svg>