<?xml version="1.0" encoding="UTF-8"?>
<!DOCTYPE svg PUBLIC "-//W3C//DTD SVG 1.0//EN" "http://www.w3.org/TR/2001/REC-SVG-20010904/DTD/svg10.dtd">
<!-- Creator: CorelDRAW X7 -->
<svg xmlns="http://www.w3.org/2000/svg" xml:space="preserve" width="817px" height="129px" version="1.0" shape-rendering="geometricPrecision" text-rendering="geometricPrecision" image-rendering="optimizeQuality" fill-rule="evenodd" clip-rule="evenodd"
viewBox="0 0 634 100"
 xmlns:xlink="http://www.w3.org/1999/xlink">
 <g id="Слой_x0020_1">
  <metadata id="CorelCorpID_0Corel-Layer"/>
  <path fill="#121212" d="M129 100l117 0 0 -22 -87 0 0 -13 87 0 0 -29 -87 0 0 -13 87 0 0 -23 -117 0 0 100zm-38 0l25 0 0 -100 -25 0 0 36 -62 0 0 -36 -29 0 0 65 91 0 0 35zm452 0l0 -35 62 0 0 35 29 0 0 -100 -29 0 0 36 -62 0 0 -36 -25 0 0 100 25 0zm-255 -77l58 0 0 13 -58 0 0 -13zm-29 77l29 0 0 -35 87 0 0 -65 -116 0 0 100zm155 -77l62 0 0 55 -62 0 0 -55zm-26 -23l0 100 117 0 0 -100 -117 0z"/>
 </g>
</svg>
