<svg xmlns="http://www.w3.org/2000/svg" viewBox="0 0 66.37 94.4"><title>Ресурс 17</title><g id="Слой_2" data-name="Слой 2"><g id="Слой_1-2" data-name="Слой 1"><path d="M33.19,0A33.21,33.21,0,0,0,0,33.19,32.73,32.73,0,0,0,5,50.61l26,42.48a2.62,2.62,0,0,0,1.88,1.27A2.75,2.75,0,0,0,35.64,93l26-42.87a32.73,32.73,0,0,0,4.7-17A33.21,33.21,0,0,0,33.19,0Zm0,49.78A16.59,16.59,0,1,1,49.78,33.19,16.57,16.57,0,0,1,33.19,49.78Z" fill="#a7db35"/><path d="M33.19,0V16.59a16.59,16.59,0,0,1,0,33.19V94.4A2.74,2.74,0,0,0,35.64,93l26-42.87a32.73,32.73,0,0,0,4.7-17A33.21,33.21,0,0,0,33.19,0Z" fill="#298e3a"/></g></g></svg>