<svg xmlns="http://www.w3.org/2000/svg" viewBox="0 0 80.77 84.73"><title>Ресурс 20</title><g id="Слой_2" data-name="Слой 2"><g id="Слой_1-2" data-name="Слой 1"><polygon points="0 27.43 50 27.43 50 8.31 57.09 8.31 57.09 0 73.47 0 73.47 8.31 80.77 8.31 80.77 84.12 80.75 84.12 80.75 84.73 0 84.73 0 27.43" fill="#3c4147" fill-rule="evenodd"/><path d="M67.54,32.72V10.67a.33.33,0,0,0-.32-.33h-3.7a.32.32,0,0,0-.32.33V33.05L8.55,37.25V62H8.49l6.3,16.63v6.15h4.34V77.11l5.4-15h6.86l6.1,16.11v6.54h4.36V77.46l5.53-15.38h8.33L61.6,77.63v7.1h4.34V78.11l5.74-16h0V32.4Z" fill="#94c400" fill-rule="evenodd"/></g></g></svg>