<svg xmlns="http://www.w3.org/2000/svg" viewBox="0 0 55.76 44.02"><title>Ресурс 5</title><g id="Слой_2" data-name="Слой 2"><g id="Слой_1-2" data-name="Слой 1"><polygon points="43.84 17.05 43.84 17.05 41.09 15.53 41.09 15.53 41.05 15.46 32.2 20.46 32.2 6.27 22.63 0.86 21.18 0 21.15 0.07 21.15 0.07 11.61 5.41 10.13 6.27 10.13 23.35 0 29.04 0 44.02 5.82 44.02 5.89 32.44 10.13 30.07 10.13 44.02 15.95 44.02 15.95 9.68 21.18 6.72 21.25 6.79 21.25 6.79 21.25 6.79 26.38 9.68 26.38 23.73 26.31 23.77 26.31 44.02 32.2 44.02 32.2 27.18 41.05 22.18 49.87 27.18 49.87 44.02 55.76 44.02 55.76 23.77 43.84 17.05" fill="#404349" fill-rule="evenodd"/><rect x="34.34" y="38.95" width="13.02" height="5.06" fill="#94c400"/><rect x="34.34" y="31.45" width="13.02" height="5.03" fill="#94c400"/></g></g></svg>