<svg xmlns="http://www.w3.org/2000/svg" viewBox="0 0 56.07 37.28"><title>Ресурс 4</title><g id="Слой_2" data-name="Слой 2"><g id="Слой_1-2" data-name="Слой 1"><path d="M28.08,37.28A9.33,9.33,0,1,0,18.75,28a9.3,9.3,0,0,0,9.33,9.3Z" fill="#94c400" fill-rule="evenodd"/><path d="M55.95,30.63A25.45,25.45,0,0,0,55.88,25a1.52,1.52,0,0,0-1.58-1.41,6.43,6.43,0,0,1-6-3.79,6.18,6.18,0,0,1,1.62-7,1.63,1.63,0,0,0,.21-2.17,28.76,28.76,0,0,0-4.44-4.48,1.51,1.51,0,0,0-2.1.17,6.18,6.18,0,0,1-7,1.52A6.46,6.46,0,0,1,32.8,1.84,1.57,1.57,0,0,0,31.46.22,28.49,28.49,0,0,0,25.05.15,1.54,1.54,0,0,0,23.64,1.8a6.1,6.1,0,0,1-3.79,6,6.37,6.37,0,0,1-7-1.62A1.54,1.54,0,0,0,10.72,6a31.25,31.25,0,0,0-4.55,4.51,2,2,0,0,0,.31,2.31,6.08,6.08,0,0,1,1.34,6.82,6.23,6.23,0,0,1-6,3.82A1.51,1.51,0,0,0,.19,24.81a25.92,25.92,0,0,0,0,5.89h12A16.17,16.17,0,1,1,44,30.7H55.95Z" fill="#404349" fill-rule="evenodd"/></g></g></svg>