<svg xmlns="http://www.w3.org/2000/svg" viewBox="0 0 40.26 40.68"><title>Ресурс 3</title><g id="Слой_2" data-name="Слой 2"><g id="Слой_1-2" data-name="Слой 1"><rect x="8.89" y="17.39" width="16.36" height="4.27" fill="#94c400"/><rect x="8.89" y="9.61" width="8.68" height="4.27" fill="#94c400"/><path d="M40.26,1V30.38a1,1,0,0,1-1,1H34.17a1,1,0,0,0-1,1v7.2a1.06,1.06,0,0,1-1.62.86L17.77,31.58a1,1,0,0,0-.55-.17H1a1,1,0,0,1-1-1V1A1,1,0,0,1,1,0h38.2a1,1,0,0,1,1,1ZM33.37,5.86H6.89a1,1,0,0,0-1,1V24.52a1,1,0,0,0,1,1h12a1,1,0,0,1,.55.17l7.82,5.06v-4.2a1,1,0,0,1,1-1h5.06a1,1,0,0,0,1-1V6.89a1,1,0,0,0-1-1Z" fill="#404349"/></g></g></svg>