<svg xmlns="http://www.w3.org/2000/svg" viewBox="0 0 40.16 34.86"><title>Ресурс 7</title><g id="Слой_2" data-name="Слой 2"><g id="Слой_1-2" data-name="Слой 1"><path d="M10,4.89H8.3c-1.62,0-3.75,1.79-3.55,3.82C1.79,9.2,0,10.54,0,13.6s2.17,4.65,5.06,5.13c.48,1.48.14,3.69,3.24,3.62H10a41,41,0,0,1,4.62.21V4.62A42.6,42.6,0,0,1,10,4.89Z" fill="#404349" fill-rule="evenodd"/><path d="M16.57,30.55l-.9-5.41A53,53,0,0,0,10,24.83H8.06L9.2,31.72a3.8,3.8,0,0,0,3.72,3.13,3.68,3.68,0,0,0,3.65-4.31Z" fill="#404349" fill-rule="evenodd"/><path d="M17,4.41V22.87a58.32,58.32,0,0,1,13.33,3.44V.9A57.15,57.15,0,0,1,17,4.41Z" fill="#404349" fill-rule="evenodd"/><path d="M33.24,0h6a1,1,0,0,1,1,1V25.73a1,1,0,0,1-1,1h-6a1,1,0,0,1-1-1V1a1,1,0,0,1,1-1Z" fill="#94c400" fill-rule="evenodd"/></g></g></svg>