<svg xmlns="http://www.w3.org/2000/svg" viewBox="0 0 68.47 37.64"><title>Ресурс 6</title><g id="Слой_2" data-name="Слой 2"><g id="Слой_1-2" data-name="Слой 1"><polygon points="67.82 21.97 67.82 21.97 66.58 21.01 66.58 21.01 57.45 14.33 55.66 13.05 53.9 14.4 47.01 19.43 40.57 14.71 40.57 14.71 39.92 14.22 39.3 13.74 39.3 13.74 38.2 12.95 37.02 13.74 37.02 13.74 36.34 14.29 35.75 14.71 35.75 14.71 32.03 17.39 32.03 8.78 17.46 0.79 15.98 0 0 8.78 0 37.65 6.03 37.65 6.1 12.37 15.98 6.92 25.93 12.37 25.93 37.65 32.03 37.65 32.03 24.97 38.2 20.49 44.84 25.38 44.84 37.4 50.94 37.4 50.94 24.07 55.66 20.63 62.37 25.52 62.37 37.58 68.47 37.58 68.47 22.42 67.82 21.97" fill="#404349" fill-rule="evenodd"/><rect x="9.13" y="32.58" width="13.71" height="5.06" fill="#94c400"/><rect x="9.13" y="25.07" width="13.71" height="5.03" fill="#94c400"/></g></g></svg>