<?xml version="1.0" encoding="utf-8"?>
<!-- Generator: Adobe Illustrator 21.1.0, SVG Export Plug-In . SVG Version: 6.00 Build 0)  -->
<svg version="1.1" id="Слой_1" xmlns="http://www.w3.org/2000/svg" xmlns:xlink="http://www.w3.org/1999/xlink" x="0px" y="0px"
	 viewBox="0 0 64 34.2" style="enable-background:new 0 0 64 34.2;" xml:space="preserve">
<style type="text/css">
	.st0{fill:#B3BCC4;}
	.st1{fill:#94C400;}
</style>
<title>Ресурс 9</title>
<path class="st0" d="M62.4,18.1L46,8.4l-2.2,1.4c-4,2.6-7.8,5-11.5,7.3c-0.2,0.1-0.5,0.3-0.8,0.4l-14-8.9C11.7,12.1,5.9,15.6,0,19
	v15.2h6.5V22.8l10.8-6.4l11,6.6v11.1h6.5V23l11.6-6.6l10.9,6.4v11.4H64V19L62.4,18.1z"/>
<polygon class="st1" points="31.9,0 44.2,7.3 39.5,10.2 31.8,5.9 23.9,10.2 19.4,7.5 31.8,0.1 "/>
<polygon class="st1" points="54.9,34.2 54.9,28.8 46.3,28.8 37.6,28.8 37.6,31.3 37.6,34.2 "/>
<polygon class="st1" points="26.1,34.2 26.1,28.8 17.4,28.8 8.7,28.8 8.7,31.3 8.7,34.2 "/>
</svg>
