<?xml version="1.0" encoding="utf-8"?>
<!-- Generator: Adobe Illustrator 21.1.0, SVG Export Plug-In . SVG Version: 6.00 Build 0)  -->
<svg version="1.1" id="Слой_1" xmlns="http://www.w3.org/2000/svg" xmlns:xlink="http://www.w3.org/1999/xlink" x="0px" y="0px"
	 viewBox="0 0 40.2 34.9" style="enable-background:new 0 0 40.2 34.9;" xml:space="preserve">
<style type="text/css">
	.st0{fill:#B3BCC4;}
	.st1{fill:#94C400;}
</style>
<title>Ресурс 7</title>
<path class="st0" d="M10,4.9H8.3c-1.6,0-3.8,1.8-3.6,3.8C1.8,9.2,0,10.5,0,13.6s2.2,4.6,5.1,5.1c0.5,1.5,0.1,3.7,3.2,3.6H10
	c1.5,0,3.1,0.1,4.6,0.2V4.6C13.1,4.8,11.5,4.9,10,4.9z"/>
<path class="st0" d="M16.6,30.5l-0.9-5.4c-1.9-0.2-3.8-0.3-5.7-0.3H8.1l1.1,6.9c0.3,1.8,1.9,3.1,3.7,3.1c2,0,3.7-1.6,3.7-3.7
	C16.6,31,16.6,30.8,16.6,30.5L16.6,30.5z"/>
<path class="st0" d="M17,4.4v18.5c4.6,0.6,9,1.8,13.3,3.4V0.9C26,2.6,21.6,3.8,17,4.4z"/>
<path class="st1" d="M33.2,0h6c0.6,0,1,0.4,1,1v24.7c0,0.6-0.4,1-1,1h-6c-0.6,0-1-0.4-1-1V1C32.2,0.4,32.7,0,33.2,0z"/>
</svg>
