<?xml version="1.0" encoding="utf-8"?>
<!-- Generator: Adobe Illustrator 21.1.0, SVG Export Plug-In . SVG Version: 6.00 Build 0)  -->
<svg version="1.1" id="Слой_1" xmlns="http://www.w3.org/2000/svg" xmlns:xlink="http://www.w3.org/1999/xlink" x="0px" y="0px"
	 viewBox="0 0 68.5 37.6" style="enable-background:new 0 0 68.5 37.6;" xml:space="preserve">
<style type="text/css">
	.st0{fill:#B3BCC4;}
	.st1{fill:#94C400;}
</style>
<title>Ресурс 6</title>
<polygon class="st0" points="67.8,22 67.8,22 66.6,21 66.6,21 57.5,14.3 55.7,13.1 53.9,14.4 47,19.4 40.6,14.7 40.6,14.7 
	39.9,14.2 39.3,13.7 39.3,13.7 38.2,12.9 37,13.7 37,13.7 36.3,14.3 35.8,14.7 35.8,14.7 32,17.4 32,8.8 17.5,0.8 16,0 0,8.8 
	0,37.7 6,37.7 6.1,12.4 16,6.9 25.9,12.4 25.9,37.7 32,37.7 32,25 38.2,20.5 44.8,25.4 44.8,37.4 50.9,37.4 50.9,24.1 55.7,20.6 
	62.4,25.5 62.4,37.6 68.5,37.6 68.5,22.4 "/>
<rect x="9.1" y="32.6" class="st1" width="13.7" height="5.1"/>
<rect x="9.1" y="25.1" class="st1" width="13.7" height="5"/>
</svg>
