<?xml version="1.0" encoding="utf-8"?>
<!-- Generator: Adobe Illustrator 21.1.0, SVG Export Plug-In . SVG Version: 6.00 Build 0)  -->
<svg version="1.1" id="Слой_1" xmlns="http://www.w3.org/2000/svg" xmlns:xlink="http://www.w3.org/1999/xlink" x="0px" y="0px"
	 viewBox="0 0 56.1 37.3" style="enable-background:new 0 0 56.1 37.3;" xml:space="preserve">
<style type="text/css">
	.st0{fill:#94C400;}
	.st1{fill:#B3BCC4;}
</style>
<title>Ресурс 4</title>
<path class="st0" d="M28.1,37.3c5.2,0,9.3-4.2,9.3-9.3c0-5.2-4.2-9.3-9.3-9.3s-9.3,4.2-9.3,9.3c0,0,0,0,0,0
	C18.7,33.1,22.9,37.3,28.1,37.3C28.1,37.3,28.1,37.3,28.1,37.3L28.1,37.3z"/>
<path class="st1" d="M56,30.6c0.2-1.9,0.2-3.8-0.1-5.6c-0.1-0.8-0.8-1.4-1.6-1.4c-2.6,0.1-4.9-1.4-6-3.8c-1-2.4-0.4-5.3,1.6-7
	c0.6-0.6,0.7-1.5,0.2-2.2c-1.3-1.7-2.8-3.2-4.4-4.5c-0.6-0.5-1.6-0.4-2.1,0.2c-1.8,1.9-4.6,2.6-7,1.5c-2.3-1.1-3.8-3.4-3.8-6
	c0-0.8-0.5-1.5-1.3-1.6C29.3,0,27.2-0.1,25,0.2c-0.8,0.1-1.5,0.8-1.4,1.6c0.1,2.6-1.4,5-3.8,6c-2.4,1-5.2,0.3-7-1.6
	c-0.5-0.6-1.5-0.7-2.1-0.2c-1.7,1.3-3.2,2.9-4.6,4.5c-0.4,0.8-0.3,1.7,0.3,2.3c1.8,1.8,2.4,4.5,1.3,6.8c-1,2.4-3.4,3.9-6,3.8
	C1,23.4,0.3,24,0.2,24.8c-0.2,2-0.2,3.9,0,5.9h12c-1.6-8.8,4.2-17.2,13-18.8s17.2,4.2,18.8,13c0.4,1.9,0.4,3.9,0,5.8L56,30.6
	L56,30.6z"/>
</svg>
