<?xml version="1.0" encoding="utf-8"?>
<!-- Generator: Adobe Illustrator 21.1.0, SVG Export Plug-In . SVG Version: 6.00 Build 0)  -->
<svg version="1.1" id="Слой_1" xmlns="http://www.w3.org/2000/svg" xmlns:xlink="http://www.w3.org/1999/xlink" x="0px" y="0px"
	 viewBox="0 0 40.3 40.7" style="enable-background:new 0 0 40.3 40.7;" xml:space="preserve">
<style type="text/css">
	.st0{fill:#94C400;}
	.st1{fill:#B3BCC4;}
</style>
<title>Ресурс 3</title>
<rect x="8.9" y="17.4" class="st0" width="16.4" height="4.3"/>
<rect x="8.9" y="9.6" class="st0" width="8.7" height="4.3"/>
<path class="st1" d="M40.3,1v29.4c0,0.6-0.4,1-1,1h-5.1c-0.6,0-1,0.4-1,1v7.2c0,0.6-0.5,1-1.1,1c-0.2,0-0.4-0.1-0.5-0.2l-13.8-8.9
	c-0.2-0.1-0.4-0.2-0.5-0.2H1c-0.6,0-1-0.4-1-1V1c0-0.6,0.4-1,1-1h38.2C39.8,0,40.2,0.4,40.3,1L40.3,1z M33.4,5.9H6.9
	c-0.6,0-1,0.4-1,1v17.7c0,0.6,0.4,1,1,1h12c0.2,0,0.4,0.1,0.5,0.2l7.8,5.1v-4.2c0-0.6,0.4-1,1-1h5.1c0.6,0,1-0.4,1-1V6.9
	C34.3,6.3,33.9,5.9,33.4,5.9L33.4,5.9z"/>
</svg>
