<?xml version="1.0" encoding="utf-8"?>
<!-- Generator: Adobe Illustrator 21.1.0, SVG Export Plug-In . SVG Version: 6.00 Build 0)  -->
<svg version="1.1" id="Слой_1" xmlns="http://www.w3.org/2000/svg" xmlns:xlink="http://www.w3.org/1999/xlink" x="0px" y="0px"
	 viewBox="0 0 55.8 44" style="enable-background:new 0 0 55.8 44;" xml:space="preserve">
<style type="text/css">
	.st0{fill:#B3BCC4;}
	.st1{fill:#94C400;}
</style>
<title>Ресурс 5</title>
<polygon class="st0" points="43.8,17 43.8,17 41.1,15.5 41.1,15.5 41,15.5 32.2,20.5 32.2,6.3 22.6,0.9 21.2,0 21.1,0.1 21.1,0.1 
	11.6,5.4 10.1,6.3 10.1,23.4 0,29 0,44 5.8,44 5.9,32.4 10.1,30.1 10.1,44 15.9,44 15.9,9.7 21.2,6.7 21.3,6.8 21.3,6.8 21.3,6.8 
	26.4,9.7 26.4,23.7 26.3,23.8 26.3,44 32.2,44 32.2,27.2 41,22.2 49.9,27.2 49.9,44 55.8,44 55.8,23.8 "/>
<rect x="34.3" y="39" class="st1" width="13" height="5.1"/>
<rect x="34.3" y="31.5" class="st1" width="13" height="5"/>
</svg>
