<svg xmlns="http://www.w3.org/2000/svg" viewBox="0 0 148.88 112.2"><title>Ресурс 24</title><g id="Слой_2" data-name="Слой 2"><g id="Слой_1-2" data-name="Слой 1"><path d="M7.14,14.29A7.14,7.14,0,1,0,0,7.14a7.15,7.15,0,0,0,7.14,7.14Z" fill="#94c400" fill-rule="evenodd"/><path d="M42.92,22a5.74,5.74,0,1,0-5.73-5.73A5.75,5.75,0,0,0,42.92,22Z" fill="#94c400" fill-rule="evenodd"/><path d="M141.73,110.35a7.14,7.14,0,1,0-7.14-7.14,7.15,7.15,0,0,0,7.14,7.14Z" fill="#94c400" fill-rule="evenodd"/><path d="M92.66,30.33h15.59a8.9,8.9,0,0,1,8.87,8.84A8.9,8.9,0,0,1,108.26,48H92.66a8.93,8.93,0,0,1-6.24-2.61h0a8.79,8.79,0,0,1,0-12.5h0a8.71,8.71,0,0,1,6.24-2.61ZM108.26,36H92.66a3.28,3.28,0,0,0-2.24.94h0a3.15,3.15,0,0,0,0,4.48v0h0a3.17,3.17,0,0,0,2.24.94h15.59a3.24,3.24,0,0,0,3.2-3.2,3.19,3.19,0,0,0-3.2-3.17Z" fill="#94c400"/><path d="M117.06,87.08c2-4.92,4.36-12.14,6.53-19.38,2.81-9.35,5.24-18.85,5.9-23.5v-.28a23.14,23.14,0,0,0-5.44-16,22.51,22.51,0,0,0-14.88-7.6l-.28,0c-2,0-6.49-.06-10.4-.09-2.44,0-4.68,0-5.92,0-9.16.09-14.14,4.93-18.48,9.13-1,1-1.93,1.87-2.86,2.64A30.77,30.77,0,0,1,68,29.76a29.35,29.35,0,0,0-5.67-3.66c-3.34-1.62-3.63-1.62-6.6-1.7l-1.19,0c-1.64-.06-5.33-.11-9-.17l-6.71-.11-19.45-16-7.17,8.73.08.07L9.95,19.81a2.81,2.81,0,0,0-.43,2.89L16.67,39.8a2.83,2.83,0,0,0,5.24-2.15L15.39,22.08l1.25-1.58L26,28.23,25.8,60a3.07,3.07,0,0,0,.57,1.73l6.83,9a2.75,2.75,0,0,0,2.27,1.13h1.7a2.74,2.74,0,0,0,.17.23l5.1,5.47-.85.85a2.78,2.78,0,0,0-.79,2l0,12.22a2.79,2.79,0,0,0,2.81,2.81,2.85,2.85,0,0,0,.66-.09h63.61l22.33,9.69,4.48-10.37ZM36.88,66.3l-5.41-7.17.19-26.29,25.91,21.3H44.14a2.82,2.82,0,0,0,0,5.64H64.43l7.93,6.52Zm9.57,23.47,0-7.88H59.92a2.82,2.82,0,1,0,0-5.64H48.8a2.69,2.69,0,0,0-.36-.48l-3.56-3.83H79.22L92.43,82.8a14.05,14.05,0,0,0,2.73,2.43,8.31,8.31,0,0,0,.77.44l5,4.1ZM104,77.64,96,71.14l6.85-10.59a5.18,5.18,0,0,1,2.1-1.93,6.74,6.74,0,0,1,2.66-.54,3.26,3.26,0,0,1,1.42,1.42,3.16,3.16,0,0,1,.17,2.44Zm4.63,3.8c.07-.16.15-.32.21-.49a1.8,1.8,0,0,0,.17-.51l5.64-16.7a8.86,8.86,0,0,0-5.27-11.11,2.81,2.81,0,0,0-1.19-.26,13,13,0,0,0-5.58,1.13,10.57,10.57,0,0,0-4.39,3.94L91.65,67.52,45.85,29.88c3.48.05,6.85.11,8.54.16l1.25,0c1.84,0,2,0,4.25,1.13a23.86,23.86,0,0,1,4.68,3,29.35,29.35,0,0,0,5.67,3.66,2.83,2.83,0,0,0,2.95-.31A36.39,36.39,0,0,0,78,33.39c3.54-3.46,7.65-7.46,14.54-7.51,1.25,0,3.46,0,5.87,0,3.74,0,8.08.09,10.18.09a17.22,17.22,0,0,1,11.14,5.67,17.48,17.48,0,0,1,4.08,11.93c-.6,4.37-2.95,13.44-5.67,22.51-2,6.81-4.27,13.55-6.1,18.24Z" fill="#3c4147" fill-rule="evenodd"/><path d="M74.27,74.24a7,7,0,1,0,7,7A7,7,0,0,0,74.27,74.24Z" fill="#3c4147" fill-rule="evenodd"/><circle cx="101.88" cy="104.77" r="7.14" fill="#3c4147"/><path d="M52.64,97.91a7.14,7.14,0,1,0,7.14,7.14A7.15,7.15,0,0,0,52.64,97.91Z" fill="#3c4147" fill-rule="evenodd"/></g></g></svg>