<svg xmlns="http://www.w3.org/2000/svg" viewBox="0 0 78.08 78.91"><title>Ресурс 18</title><g id="Слой_2" data-name="Слой 2"><g id="Слой_1-2" data-name="Слой 1"><polygon points="71.85 28.44 71.96 28.56 78.08 39.06 58.93 39.06 59.12 28.56 59.27 28.44 71.85 28.44" fill="#94c400" fill-rule="evenodd"/><polygon points="6.27 50.5 6.12 50.35 0 39.85 19.15 39.85 18.96 50.35 18.81 50.5 6.27 50.5" fill="#94c400" fill-rule="evenodd"/><polygon points="71.85 56.44 71.96 56.55 78.08 67.05 58.93 67.05 59.12 56.55 59.27 56.44 71.85 56.44" fill="#94c400" fill-rule="evenodd"/><polygon points="6.27 22.51 6.12 22.36 0 11.86 19.15 11.86 18.96 22.36 18.81 22.51 6.27 22.51" fill="#94c400" fill-rule="evenodd"/><polygon points="49.86 24.44 49.75 24.29 43.63 13.79 62.78 13.79 62.59 24.29 62.44 24.44 49.86 24.44" fill="#94c400" fill-rule="evenodd"/><polygon points="28.22 54.51 28.37 54.66 34.49 65.12 15.34 65.12 15.53 54.66 15.64 54.51 28.22 54.51" fill="#94c400" fill-rule="evenodd"/><polygon points="49.86 52.13 49.75 51.98 43.63 41.48 62.78 41.48 62.59 51.98 62.44 52.13 49.86 52.13" fill="#94c400" fill-rule="evenodd"/><polygon points="28.22 26.82 28.37 26.93 34.49 37.43 15.34 37.43 15.53 26.93 15.64 26.82 28.22 26.82" fill="#94c400" fill-rule="evenodd"/><path d="M61.65,0h0a6.81,6.81,0,0,1,6.8,6.76V72.15a6.79,6.79,0,0,1-6.8,6.76h0a6.78,6.78,0,0,1-6.76-6.76V6.76A6.8,6.8,0,0,1,61.65,0Z" fill="#3c4147" fill-rule="evenodd"/><path d="M16.43,78.91h0a6.78,6.78,0,0,1-6.76-6.76V6.76A6.8,6.8,0,0,1,16.43,0h0a6.78,6.78,0,0,1,6.76,6.76V72.15a6.75,6.75,0,0,1-6.76,6.76Z" fill="#3c4147" fill-rule="evenodd"/><path d="M61.65,10.65a3.44,3.44,0,1,0-3.44-3.44,3.46,3.46,0,0,0,3.44,3.44Z" fill="#94c400" fill-rule="evenodd"/><path d="M16.43,75.17a3.46,3.46,0,1,0,0-6.91,3.46,3.46,0,0,0,0,6.91Z" fill="#94c400" fill-rule="evenodd"/><path d="M61.65,75.59a3.46,3.46,0,1,0-3.44-3.44,3.46,3.46,0,0,0,3.44,3.44Z" fill="#94c400" fill-rule="evenodd"/><path d="M16.43,10.24A3.46,3.46,0,1,0,13,6.8a3.48,3.48,0,0,0,3.44,3.44Z" fill="#94c400" fill-rule="evenodd"/></g></g></svg>