<svg xmlns="http://www.w3.org/2000/svg" viewBox="0 0 52.39 84.2"><title>Ресурс 23</title><g id="Слой_2" data-name="Слой 2"><g id="Слой_1-2" data-name="Слой 1"><rect x="23" y="22.61" width="7.92" height="34.69" fill="#6dc700"/><polygon points="45.06 28.39 45.19 28.26 52.39 18.35 18.92 18.35 19.1 28.26 19.23 28.39 45.06 28.39" fill="#94c400" fill-rule="evenodd"/><polygon points="45.06 60.69 45.19 60.56 52.39 50.65 18.92 50.65 19.1 60.56 19.23 60.69 45.06 60.69" fill="#94c400" fill-rule="evenodd"/><polygon points="45.06 44.34 45.19 44.21 52.39 34.3 18.92 34.3 19.1 44.21 19.23 44.34 45.06 44.34" fill="#94c400" fill-rule="evenodd"/><polygon points="45.06 76.64 45.19 76.5 52.39 66.6 18.92 66.6 19.1 76.5 19.23 76.64 45.06 76.64" fill="#94c400" fill-rule="evenodd"/><polygon points="9.21 6.27 14.6 6.27 19.74 0 28.92 0 34.25 6.27 39.47 6.27 39.47 84.2 30.96 84.2 0 84.2 0 39.8 9.21 17.26 9.21 6.27" fill="#3c4147" fill-rule="evenodd"/><path d="M20.87,16h5.61a.51.51,0,0,1,.5.5V84.2h-6.6V16.51a.51.51,0,0,1,.5-.5Z" fill="#94c400" fill-rule="evenodd"/></g></g></svg>