<svg xmlns="http://www.w3.org/2000/svg" viewBox="0 0 144.88 84.61"><title>Ресурс 25</title><g id="Слой_2" data-name="Слой 2"><g id="Слой_1-2" data-name="Слой 1"><polygon points="43 76.08 28.49 84.25 29.08 84.61 57.34 84.61 43 76.08" fill="#94c400"/><polygon points="61.99 64.91 47.45 73.08 66.76 84.61 94.96 84.61 61.99 64.91" fill="#94c400"/><polygon points="82.83 53.97 68.29 62.13 106.04 84.61 134.28 84.61 82.83 53.97" fill="#94c400"/><polygon points="0 70.19 83.34 23.87 108.48 39.01 108.68 52.04 83.14 36.91 0 83.11 0 70.19" fill="#3c4147"/><polygon points="0 46.35 83.34 0 108.48 15.16 108.68 28.18 83.14 13.04 0 59.27 0 46.35" fill="#3c4147"/><polygon points="115.17 42.63 144.88 60.8 144.88 74.07 115.17 55.9 115.17 42.63" fill="#94c400"/><polygon points="115.17 18.79 144.88 36.96 144.88 50.2 115.17 32.06 115.17 18.79" fill="#94c400"/></g></g></svg>