<svg xmlns="http://www.w3.org/2000/svg" viewBox="0 0 83 80"><title>Ресурс 28</title><g id="Слой_2" data-name="Слой 2"><g id="Слой_1-2" data-name="Слой 1"><path d="M71.5,42.61V45a10.19,10.19,0,1,1-20.38,0V42.61h-8.5V56.33H35a5,5,0,0,0,0,9.94h7.65V80H80V42.61Z" fill="#3c4147"/><path d="M45.61,0V8.5H48a10.19,10.19,0,0,1,0,20.38H45.61v8.5H59.33V45a5,5,0,0,0,9.94,0V37.39H83V0Z" fill="#94c400"/><path d="M45,13.72H37.39V0H0V37.39H8.5V35a10.19,10.19,0,1,1,20.38,0v2.43h8.5V23.67H45a5,5,0,1,0,0-9.94Z" fill="#3c4147"/><path d="M35,51.11h2.43v-8.5H23.67V35a5,5,0,0,0-9.94,0v7.65H0V80H37.39V71.5H35a10.19,10.19,0,1,1,0-20.38Z" fill="#3c4147"/></g></g></svg>