<svg xmlns="http://www.w3.org/2000/svg" viewBox="0 0 80.29 83.92"><title>Ресурс 27</title><g id="Слой_2" data-name="Слой 2"><g id="Слой_1-2" data-name="Слой 1"><path d="M48.52,31.76c-3.91-3.91-10-4.77-15.3-4.36V55.47a14.43,14.43,0,0,0,15.3-23.71Z" fill="#94c400" fill-rule="evenodd"/><path d="M80.29,51V32.78H68.94a31.61,31.61,0,0,0-2.56-6.13l8-8L61.61,5.92l-8,8a31.45,31.45,0,0,0-6.29-2.61V0H33.22V22.24A35.49,35.49,0,0,1,44.5,23.64,19.33,19.33,0,0,1,38.34,61.3a19.57,19.57,0,0,1-5.41-.77V72.77a16.05,16.05,0,0,1-3.6,10.13v1h18V72.63A31.07,31.07,0,0,0,53.65,70l8,8L74.38,65.25l-8-8A31.49,31.49,0,0,0,69,51Z" fill="#3c4147" fill-rule="evenodd"/><path d="M5.31,79.17v4.67H25.15V79.17h4.44l0-52.17-1-1.72L14.83,1.61,1,25.26,0,27,0,79.17Zm6.62-4.74,0-44.42h5.72l0,44.42Zm12.93,0H20L20,30h4.83ZM12.49,15h4.65l6,10.26H6.51ZM4.76,30H9.59l0,44.42H4.72Z" fill="#3c4147" fill-rule="evenodd"/></g></g></svg>